<svg id="Grupo_122" data-name="Grupo 122" xmlns="http://www.w3.org/2000/svg" width="18.41" height="18.41" viewBox="0 0 18.41 18.41">
  <path id="Trazado_64" data-name="Trazado 64" d="M2652.525-2990.175a9.2,9.2,0,0,0-9.2,9.205,9.2,9.2,0,0,0,9.2,9.205,9.205,9.205,0,0,0,9.205-9.205A9.205,9.205,0,0,0,2652.525-2990.175Zm5.4,11.347a3.246,3.246,0,0,1-3.242,3.242h-4.309a3.246,3.246,0,0,1-3.242-3.242v-4.309a3.246,3.246,0,0,1,3.242-3.242h4.309a3.246,3.246,0,0,1,3.242,3.242Z" transform="translate(-2643.32 2990.175)" fill="#fff"/>
  <path id="Trazado_65" data-name="Trazado 65" d="M2719.425-2916.334a1.7,1.7,0,0,0-1.7,1.7,1.7,1.7,0,0,0,1.7,1.7,1.7,1.7,0,0,0,1.7-1.7A1.7,1.7,0,0,0,2719.425-2916.334Z" transform="translate(-2710.176 2923.823)" fill="#fff"/>
  <path id="Trazado_66" data-name="Trazado 66" d="M2697.415-2942.742h-4.309a2.229,2.229,0,0,0-2.227,2.226v4.31a2.229,2.229,0,0,0,2.227,2.227h4.309a2.229,2.229,0,0,0,2.227-2.227v-4.31A2.229,2.229,0,0,0,2697.415-2942.742Zm-2.11,7.039a2.661,2.661,0,0,1-2.658-2.658,2.661,2.661,0,0,1,2.658-2.658,2.661,2.661,0,0,1,2.658,2.658A2.661,2.661,0,0,1,2695.3-2935.7Zm2.813-4.862a.633.633,0,0,1-.633-.633.633.633,0,0,1,.633-.632.633.633,0,0,1,.633.632A.633.633,0,0,1,2698.117-2940.565Z" transform="translate(-2686.055 2947.553)" fill="#fff"/>
</svg>
