<svg xmlns="http://www.w3.org/2000/svg" width="8.986" height="12.42" viewBox="0 0 8.986 12.42">
  <path id="Trazado_62" data-name="Trazado 62" d="M3626.228-199.084c.123.016.247.028.37.048a4.412,4.412,0,0,1,3.524,2.7,4.33,4.33,0,0,1,.168,3.021,11.185,11.185,0,0,1-1.11,2.518,25.5,25.5,0,0,1-2.826,3.913.423.423,0,0,1-.739,0,24.24,24.24,0,0,1-3.139-4.486,8.356,8.356,0,0,1-.89-2.345,4.362,4.362,0,0,1,1.363-4.179,4.363,4.363,0,0,1,2.542-1.165c.084-.01.167-.018.251-.028Zm-.258,6.76a2.265,2.265,0,0,0,2.274-2.233,2.265,2.265,0,0,0-2.237-2.294,2.264,2.264,0,0,0-2.28,2.226A2.264,2.264,0,0,0,3625.971-192.324Z" transform="translate(-3621.498 199.084)" fill="#d18919"/>
</svg>
