<svg width="42.463562" height="42.463562" viewBox="0 0 42.4636 42.4636" fill="none" xmlns="http://www.w3.org/2000/svg" xmlns:xlink="http://www.w3.org/1999/xlink">
	<path d="M21.2318 0C9.50592 0 0 9.50568 0 21.2317C0 32.9577 9.50592 42.4636 21.2318 42.4636C32.9578 42.4636 42.4636 32.9577 42.4636 21.2317C42.4636 9.50568 32.9578 0 21.2318 0ZM33.0072 23.1117L23.1119 23.1117L23.1119 33.0071C23.1119 34.0453 22.2701 34.8871 21.2319 34.8871C20.1937 34.8871 19.352 34.0453 19.352 33.0071L19.352 23.1117L9.45642 23.1117C8.41833 23.1117 7.57648 22.27 7.57648 21.2317C7.57648 20.1935 8.41833 19.3519 9.45642 19.3519L19.352 19.3519L19.352 9.45636C19.352 8.41809 20.1937 7.57642 21.2319 7.57642C22.2701 7.57642 23.1119 8.41809 23.1119 9.45636L23.1119 19.3519L33.0072 19.3519C34.0455 19.3519 34.8872 20.1935 34.8872 21.2317C34.8872 22.27 34.0455 23.1117 33.0072 23.1117Z" fill-rule="evenodd" fill="#FFFFFF"/>
	<defs/>
</svg>
