<svg xmlns="http://www.w3.org/2000/svg" width="81.998" height="14.777" viewBox="0 0 81.998 14.777">
  <g id="Grupo_14" data-name="Grupo 14" transform="translate(291 -163)">
    <path id="Trazado_3" data-name="Trazado 3" d="M1494.383-363.391v-3.368a1.891,1.891,0,0,1-1.8,1.684A1.891,1.891,0,0,1,1494.383-363.391Z" transform="translate(-1732.518 533.357)" fill="#fff"/>
    <path id="Trazado_4" data-name="Trazado 4" d="M1446.76-394.127a4.1,4.1,0,0,1-2.125,2.245,1.82,1.82,0,0,1-.8.176h-3.273a1.409,1.409,0,0,0,.852-1.293v-7.935a1.41,1.41,0,0,0-.857-1.3h3.081a1.929,1.929,0,0,1,1.2.407,3.907,3.907,0,0,1,1.315,2.018v-2.206a.346.346,0,0,0-.346-.346h-8.134s1.635.341,1.616,1.8v7.188c0,.936-1.616,1.8-1.616,1.8h8.738a.346.346,0,0,0,.346-.346Z" transform="translate(-1682.826 565.574)" fill="#fff"/>
    <path id="Trazado_6" data-name="Trazado 6" d="M1562.915-396.092a.053.053,0,0,1,0-.1,2.91,2.91,0,0,0,2.6-3.011c0-1.824-1.258-3.19-4.052-3.19l-5.053,0s1.635.341,1.616,1.8v7.188c0,.936-1.616,1.8-1.616,1.8h2.314a1.424,1.424,0,0,0,1.424-1.423v-7.935a1.406,1.406,0,0,0-.857-1.293h1.541a2.306,2.306,0,0,1,1.5.523,3.441,3.441,0,0,1,1.056,2.533,3.581,3.581,0,0,1-2.036,3.015c-.05.027-.048.072,0,.1,2,1.257.744,4.848,3.8,4.848a2.67,2.67,0,0,0,1.739-.553C1564.646-391.609,1565.413-395.642,1562.915-396.092Z" transform="translate(-1790.277 565.609)" fill="#fff"/>
    <path id="Trazado_7" data-name="Trazado 7" d="M1299.808-404.424h-3.644a2.342,2.342,0,0,1,1.162,2.168,2.438,2.438,0,0,1-.144.932l-1.944,6.6c-.138.4-.28.836-.671.836-.344,0-.435-.233-.635-.919l-2.178-7.457a3.2,3.2,0,0,0-3.09-2.371h-1.5a3.267,3.267,0,0,1,2.273,1.946l2.483,7.892a1.841,1.841,0,0,0,2.112,1.3c.987,0,1.154-.676,1.342-1.194l1.955-6.647a8.79,8.79,0,0,1,.363-.9A4.663,4.663,0,0,1,1299.808-404.424Z" transform="translate(-1546.615 567.636)" fill="#fff"/>
    <path id="Trazado_9" data-name="Trazado 9" d="M1207.185-394.251c0-3.666-6.629-3.666-6.629-6.283,0-.882.876-1.681,2.641-1.681a3.55,3.55,0,0,1,.367.019.923.923,0,0,1,.68.405,2.462,2.462,0,0,1,.206,1.476,1.074,1.074,0,0,0,1.072,1.072,1.073,1.073,0,0,0,1.057-1.072c0-1.948-2.413-2.035-3.35-2.038-2.759-.009-3.266,1.666-3.248,3.186.041,3.511,6.131,3.828,6.131,6.055a1.073,1.073,0,0,1-.077.376,1.717,1.717,0,0,1-1.182,1.022,5.024,5.024,0,0,1-1.3.17,5.017,5.017,0,0,1-1.239-.155,1.854,1.854,0,0,1-.749-.389,9.2,9.2,0,0,1-1.884-2.639l.015,3.156c.418-.678,1.419-.158,2.459.016a7.753,7.753,0,0,0,1.4.139,5.492,5.492,0,0,0,2.2-.493h0A2.451,2.451,0,0,0,1207.185-394.251Z" transform="translate(-1467.448 565.569)" fill="#fff"/>
    <path id="Trazado_10" data-name="Trazado 10" d="M1800.059-307.81a.936.936,0,0,1-.937.935.926.926,0,0,1-.928-.93.934.934,0,0,1,.934-.935A.927.927,0,0,1,1800.059-307.81Zm-.116,0a.805.805,0,0,0-.815-.806.808.808,0,0,0-.815.812.8.8,0,0,0,.81.806A.813.813,0,0,0,1799.943-307.81Zm-.631.132.231.332h-.138l-.2-.31a.422.422,0,0,1-.058,0h-.253v.307h-.116v-.968h.369c.248,0,.386.118.386.324A.3.3,0,0,1,1799.313-307.678Zm-.168-.077c.171,0,.273-.085.273-.233s-.1-.222-.273-.222h-.253v.455Z" transform="translate(-2009.088 480.852)" fill="#fff"/>
    <path id="Trazado_1" data-name="Trazado 1" d="M1132.782-363.391v-3.368a1.891,1.891,0,0,1-1.8,1.684A1.891,1.891,0,0,1,1132.782-363.391Z" transform="translate(-1405.275 533.357)" fill="#fff"/>
    <path id="Trazado_2" data-name="Trazado 2" d="M1085.159-394.127a4.108,4.108,0,0,1-2.135,2.25,1.83,1.83,0,0,1-.8.175h-3.263a1.414,1.414,0,0,0,.852-1.3v-7.935a1.405,1.405,0,0,0-.857-1.293h3.081a1.937,1.937,0,0,1,1.216.413,3.909,3.909,0,0,1,1.3,2.008v-2.206a.346.346,0,0,0-.346-.346h-8.134s1.635.341,1.616,1.8v7.188c0,.936-1.616,1.8-1.616,1.8h8.738a.345.345,0,0,0,.345-.346Z" transform="translate(-1355.584 565.574)" fill="#fff"/>
    <path id="Trazado_5" data-name="Trazado 5" d="M966.513-387.941a3.912,3.912,0,0,1-2.2-2.326c-.906-1.91-.354-3.344-1.161-4.618a2.58,2.58,0,0,0-1.517-1.21.055.055,0,0,1,0-.106,2.9,2.9,0,0,0,2.583-3c0-2.051-1.521-3.19-3.954-3.19h-5.137s1.635.344,1.616,1.8v7.188c0,.936-1.616,1.8-1.616,1.8h2.314a1.424,1.424,0,0,0,1.424-1.424v-7.935a1.428,1.428,0,0,0-.82-1.292l1.528,0a2.114,2.114,0,0,1,1.424.522,3.433,3.433,0,0,1,1.039,2.536,3.575,3.575,0,0,1-1.976,3.019.055.055,0,0,0,0,.1c1.692.972.943,3.872,2.355,6.163a4.313,4.313,0,0,0,4.085,2.1A.056.056,0,0,0,966.513-387.941Z" transform="translate(-1246.124 565.609)" fill="#fff"/>
    <path id="Trazado_8" data-name="Trazado 8" d="M1689.462-389.223a4.715,4.715,0,0,1-2.486-3l-3.116-10.3a1.842,1.842,0,0,0-2.112-1.3c-.987,0-1.154.676-1.342,1.193l-1.955,6.647a8.816,8.816,0,0,1-.364.9,4.662,4.662,0,0,1-2.116,2.181h3.644a2.342,2.342,0,0,1-1.162-2.168,2.44,2.44,0,0,1,.144-.932l1.944-6.6c.177-.5.3-.882.69-.882.137,0,.374.024.517.517l2.992,10.313a5.085,5.085,0,0,0,4.71,3.473A.026.026,0,0,0,1689.462-389.223Z" transform="translate(-1898.479 566.896)" fill="#fff"/>
  </g>
</svg>
