<svg xmlns="http://www.w3.org/2000/svg" width="18.41" height="18.411" viewBox="0 0 18.41 18.411">
  <path id="Trazado_63" data-name="Trazado 63" d="M2026.127-2984a.613.613,0,0,0-.029-.083,9.221,9.221,0,0,0-8.664-6.094,9.221,9.221,0,0,0-8.663,6.094.612.612,0,0,0-.029.083,9.162,9.162,0,0,0-.513,3.028,9.164,9.164,0,0,0,.513,3.029.667.667,0,0,0,.029.083,9.221,9.221,0,0,0,8.663,6.094,9.221,9.221,0,0,0,8.664-6.094.613.613,0,0,0,.029-.083,9.164,9.164,0,0,0,.512-3.029A9.162,9.162,0,0,0,2026.127-2984Zm-1.632-.48h-3.8a12.673,12.673,0,0,0-1.2-4.1A7.919,7.919,0,0,1,2024.495-2984.48Zm-4.872,3.508c0,.751-.033,1.485-.1,2.189h-4.184c-.064-.7-.1-1.437-.1-2.189s.033-1.485.1-2.188h4.184C2019.589-2982.457,2019.623-2981.723,2019.623-2980.972Zm-3.577-5.834c.473-1.417,1.038-2.052,1.388-2.052s.916.634,1.388,2.052a14.418,14.418,0,0,1,.543,2.326H2015.5A14.425,14.425,0,0,1,2016.046-2986.805Zm-.673-1.778a12.673,12.673,0,0,0-1.2,4.1h-3.8A7.92,7.92,0,0,1,2015.372-2988.583Zm-5.824,7.612a7.855,7.855,0,0,1,.309-2.188h4.161c-.062.718-.093,1.454-.093,2.188s.031,1.471.093,2.189h-4.161A7.857,7.857,0,0,1,2009.548-2980.972Zm.825,3.508h3.8a12.67,12.67,0,0,0,1.2,4.1A7.92,7.92,0,0,1,2010.373-2977.463Zm8.449,2.326c-.473,1.417-1.038,2.052-1.388,2.052s-.916-.634-1.388-2.052a14.476,14.476,0,0,1-.543-2.326h3.863A14.431,14.431,0,0,1,2018.822-2975.138Zm.673,1.778a12.67,12.67,0,0,0,1.2-4.1h3.8A7.919,7.919,0,0,1,2019.5-2973.36Zm5.514-5.423h-4.161c.062-.718.093-1.454.093-2.189s-.031-1.47-.093-2.188h4.161a7.86,7.86,0,0,1,.309,2.188A7.86,7.86,0,0,1,2025.01-2978.783Z" transform="translate(-2008.229 2990.177)" fill="#fff"/>
</svg>
