<svg xmlns="http://www.w3.org/2000/svg" width="18.41" height="18.298" viewBox="0 0 18.41 18.298">
  <path id="Trazado_67" data-name="Trazado 67" d="M2334.979-2990.175a9.205,9.205,0,0,0-9.205,9.205,9.207,9.207,0,0,0,7.767,9.093v-6.432H2331.2v-2.661h2.337V-2983a3.248,3.248,0,0,1,3.477-3.581,14.135,14.135,0,0,1,2.06.18v2.265h-1.16a1.331,1.331,0,0,0-1.5,1.438v1.727h2.553l-.408,2.661h-2.145v6.432a9.207,9.207,0,0,0,7.767-9.093A9.205,9.205,0,0,0,2334.979-2990.175Z" transform="translate(-2325.774 2990.175)" fill="#fff"/>
</svg>
