<svg xmlns="http://www.w3.org/2000/svg" width="173.156" height="31.206" viewBox="0 0 173.156 31.206">
  <g id="Grupo_1" data-name="Grupo 1" transform="translate(291 -163)">
    <path id="Trazado_3" data-name="Trazado 3" d="M1496.381-359.647v-7.111a3.994,3.994,0,0,1-3.795,3.556A3.994,3.994,0,0,1,1496.381-359.647Z" transform="translate(-1675.745 537.358)" fill="#fff"/>
    <path id="Trazado_4" data-name="Trazado 4" d="M1456.858-384.978c-.367,1.653-2.386,3.714-4.488,4.741a3.841,3.841,0,0,1-1.688.372h-6.911a2.975,2.975,0,0,0,1.8-2.73v-16.756a2.978,2.978,0,0,0-1.81-2.737h6.506a4.074,4.074,0,0,1,2.54.86,8.251,8.251,0,0,1,2.776,4.261v-4.659a.73.73,0,0,0-.73-.73h-17.176s3.452.72,3.412,3.795v15.179c0,1.977-3.412,3.795-3.412,3.795l4.128,0,14.324,0a.73.73,0,0,0,.73-.73Z" transform="translate(-1631.853 565.814)" fill="#fff"/>
    <path id="Trazado_6" data-name="Trazado 6" d="M1570.148-389.084a.112.112,0,0,1,.006-.218c3.849-.852,5.484-3.229,5.484-6.358,0-3.852-2.656-6.736-8.557-6.736l-10.672.008s3.452.72,3.412,3.795v15.179c0,1.977-3.412,3.795-3.412,3.795h4.886a3.006,3.006,0,0,0,3.006-3.006v-16.756a2.97,2.97,0,0,0-1.81-2.731h3.254a4.87,4.87,0,0,1,3.161,1.1,7.265,7.265,0,0,1,2.23,5.349c0,3.891-3.362,5.853-4.3,6.367-.1.057-.1.152,0,.215,4.233,2.655,1.572,10.239,8.027,10.239a5.636,5.636,0,0,0,3.671-1.167C1573.8-379.618,1575.423-388.134,1570.148-389.084Z" transform="translate(-1726.762 565.845)" fill="#fff"/>
    <path id="Trazado_7" data-name="Trazado 7" d="M1313.864-404.187h-7.7c1.514.8,2.3,2.2,2.454,4.578a5.153,5.153,0,0,1-.3,1.969l-4.105,13.931c-.292.847-.591,1.766-1.417,1.766-.727,0-.918-.493-1.341-1.94l-4.6-15.746a6.765,6.765,0,0,0-6.525-5.006h-3.168s3.851.893,4.8,4.108l5.244,16.665c.87,2.616,2.728,2.738,4.459,2.738,2.084,0,2.437-1.428,2.833-2.52l4.129-14.037a18.527,18.527,0,0,1,.767-1.9A9.846,9.846,0,0,1,1313.864-404.187Z" transform="translate(-1511.54 567.636)" fill="#fff"/>
    <path id="Trazado_9" data-name="Trazado 9" d="M1215.523-385.245c0-7.742-14-7.742-14-13.268,0-1.862,1.849-3.549,5.578-3.549a7.509,7.509,0,0,1,.776.04,1.948,1.948,0,0,1,1.436.856,5.2,5.2,0,0,1,.434,3.117,2.269,2.269,0,0,0,2.264,2.264,2.266,2.266,0,0,0,2.232-2.264c0-4.114-5.1-4.3-7.073-4.3-5.827-.019-6.9,3.519-6.859,6.727.086,7.413,12.947,8.084,12.947,12.787a2.262,2.262,0,0,1-.162.795,3.624,3.624,0,0,1-2.5,2.157,10.6,10.6,0,0,1-2.736.358,10.593,10.593,0,0,1-2.617-.328,3.921,3.921,0,0,1-1.583-.821,19.428,19.428,0,0,1-3.979-5.573l.032,6.665c.882-1.432,3-.333,5.193.035a16.363,16.363,0,0,0,2.953.294,11.6,11.6,0,0,0,4.652-1.04l.007,0h0A5.175,5.175,0,0,0,1215.523-385.245Z" transform="translate(-1441.614 565.811)" fill="#fff"/>
    <path id="Trazado_10" data-name="Trazado 10" d="M1802.133-306.776a1.977,1.977,0,0,1-1.978,1.975,1.956,1.956,0,0,1-1.961-1.964,1.972,1.972,0,0,1,1.973-1.975A1.958,1.958,0,0,1,1802.133-306.776Zm-.245,0a1.7,1.7,0,0,0-1.722-1.7,1.707,1.707,0,0,0-1.722,1.714,1.691,1.691,0,0,0,1.71,1.7A1.717,1.717,0,0,0,1801.888-306.776Zm-1.332.278.489.7h-.291l-.431-.655a.891.891,0,0,1-.122.006h-.535v.649h-.244v-2.045h.78c.524,0,.814.249.814.684A.635.635,0,0,1,1800.556-306.5Zm-.355-.162c.36,0,.576-.18.576-.493s-.215-.469-.576-.469h-.535v.961Z" transform="translate(-1920.032 490.982)" fill="#fff"/>
    <path id="Trazado_1" data-name="Trazado 1" d="M1134.78-359.647v-7.111a3.994,3.994,0,0,1-3.795,3.556A3.994,3.994,0,0,1,1134.78-359.647Z" transform="translate(-1386.699 537.358)" fill="#fff"/>
    <path id="Trazado_2" data-name="Trazado 2" d="M1095.257-384.978c-.368,1.658-2.4,3.727-4.508,4.75a3.866,3.866,0,0,1-1.689.37h-6.89a2.986,2.986,0,0,0,1.8-2.738v-16.756a2.967,2.967,0,0,0-1.81-2.729h6.506a4.091,4.091,0,0,1,2.567.873,8.251,8.251,0,0,1,2.75,4.239v-4.659a.73.73,0,0,0-.73-.73h-17.176s3.452.72,3.412,3.795v15.179c0,1.977-3.412,3.795-3.412,3.795h18.452a.73.73,0,0,0,.729-.73Z" transform="translate(-1342.807 565.814)" fill="#fff"/>
    <path id="Trazado_5" data-name="Trazado 5" d="M979.173-371.871c-2.67-.816-3.907-3.33-4.656-4.911-1.913-4.034-.746-7.061-2.451-9.753a5.448,5.448,0,0,0-3.2-2.555.115.115,0,0,1,0-.225c3.836-.863,5.455-3.231,5.455-6.345,0-4.331-3.211-6.736-8.349-6.736H955.124s3.452.727,3.412,3.8v15.179c0,1.977-3.412,3.795-3.412,3.795h4.886a3.006,3.006,0,0,0,3.006-3.006v-16.756a3.016,3.016,0,0,0-1.732-2.728l3.227-.006a4.465,4.465,0,0,1,3.008,1.1,7.25,7.25,0,0,1,2.193,5.355c0,3.943-3.354,5.928-4.172,6.375a.115.115,0,0,0,0,.2c3.572,2.053,1.99,8.176,4.972,13.014,2.7,4.378,6.344,4.329,8.626,4.429A.117.117,0,0,0,979.173-371.871Z" transform="translate(-1246.124 565.845)" fill="#fff"/>
    <path id="Trazado_8" data-name="Trazado 8" d="M1704.459-373a9.957,9.957,0,0,1-5.249-6.342l-6.581-21.74c-.871-2.615-2.728-2.738-4.46-2.738-2.084,0-2.437,1.428-2.833,2.52l-4.129,14.037a18.576,18.576,0,0,1-.768,1.9,9.845,9.845,0,0,1-4.468,4.607h7.7c-1.514-.8-2.3-2.2-2.454-4.578a5.146,5.146,0,0,1,.3-1.968l4.105-13.931c.373-1.056.634-1.863,1.458-1.863.29,0,.79.05,1.092,1.091l6.318,21.778a10.736,10.736,0,0,0,9.945,7.334A.055.055,0,0,0,1704.459-373Z" transform="translate(-1822.334 566.982)" fill="#fff"/>
  </g>
</svg>
