<svg xmlns="http://www.w3.org/2000/svg" width="141.007" height="120.783" viewBox="0 0 141.007 120.783">
  <g id="Grupo_95" data-name="Grupo 95" transform="translate(-337.221 -87.423)">
    <g id="Grupo_93" data-name="Grupo 93" transform="translate(337.221 87.423)">
      <g id="Grupo_91" data-name="Grupo 91">
        <g id="Grupo_90" data-name="Grupo 90">
          <g id="Grupo_77" data-name="Grupo 77" transform="translate(53.06)">
            <g id="Grupo_75" data-name="Grupo 75">
              <path id="Trazado_21" data-name="Trazado 21" d="M502.548,111.343c.049-.281.053-.374.224-1.442.665-4.152-4.171-6.834-4.171-6.834a8.252,8.252,0,0,0,5.524-7.27c.3-4.9-5.249-11.583-14.274-6.633a.056.056,0,0,0-.011.082.058.058,0,0,0,.036.022.073.073,0,0,0,.045-.011,7.254,7.254,0,1,1,5.774,13.232c-.047.015-.044.07,0,.09,1.146.52,4.085,2.686,3.205,7.326-.058.307-.136.776-.17.973-1.543,8.822,8.415,11.438,8.415,11.438A10.966,10.966,0,0,1,502.548,111.343Z" transform="translate(-489.828 -87.423)" fill="#d18919"/>
            </g>
            <g id="Grupo_76" data-name="Grupo 76" transform="translate(14.921 16.534)">
              <path id="Trazado_22" data-name="Trazado 22" d="M548.051,135.33a18.693,18.693,0,0,0-6.158-.136,8.825,8.825,0,0,0-6.94,8.092c-.4,7.367,6.516,7.613,6.422,15.138a9.3,9.3,0,0,1-8.527,8.945.105.105,0,0,0-.021.208,10.724,10.724,0,0,0,12.572-9.765c.708-7.28-6.467-10.086-6.2-15.218.213-4.075,2.8-7.382,8.84-7.164A.05.05,0,0,0,548.051,135.33Z" transform="translate(-532.744 -134.979)" fill="#d18919"/>
            </g>
          </g>
          <g id="Grupo_89" data-name="Grupo 89" transform="translate(0 72.741)">
            <g id="Grupo_80" data-name="Grupo 80" transform="translate(19.756 0.372)">
              <g id="Grupo_78" data-name="Grupo 78" transform="translate(8.969 5.815)">
                <path id="Trazado_23" data-name="Trazado 23" d="M422.928,320.221v-5.789a3.251,3.251,0,0,1-3.089,2.894A3.251,3.251,0,0,1,422.928,320.221Z" transform="translate(-419.839 -314.432)" fill="#d18919"/>
              </g>
              <g id="Grupo_79" data-name="Grupo 79">
                <path id="Trazado_24" data-name="Trazado 24" d="M409.658,311.856c-.3,1.35-1.953,3.034-3.67,3.867a3.148,3.148,0,0,1-1.375.3H399a2.431,2.431,0,0,0,1.464-2.229v-13.64a2.415,2.415,0,0,0-1.473-2.222h5.3a3.328,3.328,0,0,1,2.089.711,6.717,6.717,0,0,1,2.239,3.451V298.3a.594.594,0,0,0-.594-.594H394.043s2.81.586,2.778,3.089v12.356c0,1.61-2.778,3.089-2.778,3.089h15.021a.594.594,0,0,0,.594-.594Z" transform="translate(-394.043 -297.708)" fill="#d18919"/>
              </g>
            </g>
            <g id="Grupo_83" data-name="Grupo 83" transform="translate(78.821 0.372)">
              <g id="Grupo_81" data-name="Grupo 81" transform="translate(8.969 5.815)">
                <path id="Trazado_25" data-name="Trazado 25" d="M592.806,320.221v-5.789a3.251,3.251,0,0,1-3.089,2.894A3.251,3.251,0,0,1,592.806,320.221Z" transform="translate(-589.717 -314.432)" fill="#d18919"/>
              </g>
              <g id="Grupo_82" data-name="Grupo 82">
                <path id="Trazado_26" data-name="Trazado 26" d="M579.536,311.856c-.3,1.346-1.942,3.023-3.654,3.859a3.127,3.127,0,0,1-1.374.3h-5.626a2.422,2.422,0,0,0,1.464-2.222v-13.64a2.424,2.424,0,0,0-1.473-2.228h5.3a3.316,3.316,0,0,1,2.068.7,6.715,6.715,0,0,1,2.26,3.469V298.3a.594.594,0,0,0-.594-.594H563.921s2.81.586,2.778,3.089v12.356c0,1.61-2.778,3.089-2.778,3.089l3.36,0,11.661,0a.594.594,0,0,0,.594-.594Z" transform="translate(-563.921 -297.708)" fill="#d18919"/>
              </g>
            </g>
            <g id="Grupo_84" data-name="Grupo 84" transform="translate(0 0.366)">
              <path id="Trazado_27" data-name="Trazado 27" d="M356.8,322.539c-2.173-.664-3.18-2.711-3.79-4-1.558-3.284-.608-5.748-2-7.939a4.435,4.435,0,0,0-2.608-2.08.094.094,0,0,1,0-.183c3.123-.7,4.44-2.631,4.44-5.166,0-3.526-2.614-5.483-6.8-5.483h-8.831s2.81.592,2.777,3.1v12.356c0,1.61-2.777,3.089-2.777,3.089H341.2a2.447,2.447,0,0,0,2.447-2.447v-13.64a2.456,2.456,0,0,0-1.411-2.221l2.627,0a3.635,3.635,0,0,1,2.448.9,5.9,5.9,0,0,1,1.786,4.359c0,3.21-2.73,4.826-3.4,5.19a.094.094,0,0,0,0,.165c2.908,1.671,1.62,6.655,4.048,10.594,2.2,3.564,5.165,3.524,7.023,3.605A.1.1,0,0,0,356.8,322.539Z" transform="translate(-337.221 -297.69)" fill="#d18919"/>
            </g>
            <g id="Grupo_85" data-name="Grupo 85" transform="translate(98.215 0.366)">
              <path id="Trazado_28" data-name="Trazado 28" d="M630.885,308.527a.091.091,0,0,1,.005-.177c3.133-.694,4.464-2.629,4.464-5.176,0-3.135-2.163-5.483-6.966-5.483l-8.687.006s2.81.586,2.778,3.089v12.356c0,1.61-2.778,3.089-2.778,3.089h3.978a2.447,2.447,0,0,0,2.447-2.447v-13.64a2.417,2.417,0,0,0-1.473-2.223H627.3a3.965,3.965,0,0,1,2.573.9,5.916,5.916,0,0,1,1.815,4.354c0,3.167-2.736,4.765-3.5,5.184-.085.047-.083.123,0,.175,3.446,2.161,1.28,8.335,6.534,8.335a4.588,4.588,0,0,0,2.989-.951C633.86,316.233,635.179,309.3,630.885,308.527Z" transform="translate(-619.701 -297.69)" fill="#d18919"/>
            </g>
            <g id="Grupo_86" data-name="Grupo 86" transform="translate(54.236)">
              <path id="Trazado_29" data-name="Trazado 29" d="M514.946,297h-6.264c1.233.648,1.871,1.794,2,3.727a4.191,4.191,0,0,1-.248,1.6l-3.342,11.341c-.238.689-.481,1.438-1.153,1.438-.591,0-.747-.4-1.091-1.58L501.1,300.713a5.507,5.507,0,0,0-5.312-4.076h-2.579s3.135.727,3.907,3.345l4.269,13.566c.709,2.129,2.221,2.229,3.631,2.229,1.7,0,1.984-1.162,2.306-2.052l3.361-11.427a15.054,15.054,0,0,1,.625-1.546A8.015,8.015,0,0,1,514.946,297Z" transform="translate(-493.211 -296.637)" fill="#d18919"/>
            </g>
            <g id="Grupo_87" data-name="Grupo 87" transform="translate(117.744 0.134)">
              <path id="Trazado_30" data-name="Trazado 30" d="M699.061,322.112a8.106,8.106,0,0,1-4.273-5.163l-5.358-17.7c-.709-2.129-2.221-2.229-3.63-2.229-1.7,0-1.984,1.162-2.307,2.052L680.132,310.5a15.05,15.05,0,0,1-.625,1.546,8.015,8.015,0,0,1-3.637,3.75h6.264c-1.233-.648-1.871-1.794-2-3.727a4.19,4.19,0,0,1,.248-1.6l3.342-11.341c.3-.859.516-1.517,1.187-1.517.236,0,.643.041.889.888l5.143,17.729a8.74,8.74,0,0,0,8.1,5.97A.045.045,0,0,0,699.061,322.112Z" transform="translate(-675.871 -297.022)" fill="#d18919"/>
            </g>
            <g id="Grupo_88" data-name="Grupo 88" transform="translate(39.947 0.373)">
              <path id="Trazado_31" data-name="Trazado 31" d="M465.007,311.636c0-6.3-11.4-6.3-11.4-10.8,0-1.516,1.5-2.889,4.54-2.889a6.116,6.116,0,0,1,.632.033,1.586,1.586,0,0,1,1.169.7,4.241,4.241,0,0,1,.354,2.537,1.83,1.83,0,1,0,3.66,0c0-3.349-4.148-3.5-5.758-3.5-4.743-.016-5.614,2.865-5.584,5.477.07,6.035,10.539,6.58,10.539,10.41a1.842,1.842,0,0,1-.132.647A2.95,2.95,0,0,1,461,316a8.648,8.648,0,0,1-4.358.024,3.188,3.188,0,0,1-1.289-.669,15.814,15.814,0,0,1-3.239-4.536l.026,5.425c.718-1.166,2.439-.272,4.228.028a13.308,13.308,0,0,0,2.4.24,9.444,9.444,0,0,0,3.787-.847l.006,0h0A4.213,4.213,0,0,0,465.007,311.636Z" transform="translate(-452.114 -297.71)" fill="#d18919"/>
            </g>
          </g>
        </g>
      </g>
      <g id="Grupo_92" data-name="Grupo 92" transform="translate(137.801 88.266)">
        <path id="Trazado_32" data-name="Trazado 32" d="M736.763,342.888a1.609,1.609,0,0,1-1.61,1.608,1.6,1.6,0,1,1,1.61-1.608Zm-.2,0a1.4,1.4,0,1,0-1.411,1.4A1.385,1.385,0,0,0,736.564,342.888Zm-1.084.226.4.571h-.237l-.351-.533a.734.734,0,0,1-.1,0h-.436v.528h-.2v-1.665h.635c.426,0,.663.2.663.557A.517.517,0,0,1,735.48,343.114Zm-.289-.132c.293,0,.469-.146.469-.4s-.176-.381-.469-.381h-.436v.783Z" transform="translate(-733.557 -341.289)" fill="#d18919"/>
      </g>
    </g>
    <g id="Grupo_94" data-name="Grupo 94" transform="translate(337.678 202.371)">
      <path id="Trazado_33" data-name="Trazado 33" d="M340.6,422.86h.016l1.3-4.423h.855l1.294,4.423h.016l1.224-4.423h.823l-1.631,5.552h-.808l-1.349-4.462h-.016l-1.349,4.462h-.808l-1.631-5.552h.839Z" transform="translate(-338.535 -418.296)" fill="#d18919"/>
      <path id="Trazado_34" data-name="Trazado 34" d="M368.948,423.3h2.9v.69h-3.678v-5.552h3.56v.682h-2.784v1.663h2.619v.667h-2.619Z" transform="translate(-357.868 -418.296)" fill="#d18919"/>
      <path id="Trazado_35" data-name="Trazado 35" d="M388.142,423.3h2.478v.69h-3.254v-5.552h.776Z" transform="translate(-370.388 -418.296)" fill="#d18919"/>
      <path id="Trazado_36" data-name="Trazado 36" d="M405.306,423.3h2.478v.69H404.53v-5.552h.776Z" transform="translate(-381.584 -418.296)" fill="#d18919"/>
      <path id="Trazado_37" data-name="Trazado 37" d="M425.607,422.876h.016v-4.439h.776v5.552h-.98l-2.933-4.533h-.016v4.533h-.776v-5.552h1.011Z" transform="translate(-392.781 -418.296)" fill="#d18919"/>
      <path id="Trazado_38" data-name="Trazado 38" d="M445.521,423.3h2.9v.69h-3.678v-5.552h3.56v.682h-2.784v1.663h2.619v.667h-2.619Z" transform="translate(-407.817 -418.296)" fill="#d18919"/>
      <path id="Trazado_39" data-name="Trazado 39" d="M465.979,419.2a1.243,1.243,0,0,0-.447-.373,1.37,1.37,0,0,0-.635-.145,1.477,1.477,0,0,0-.38.051,1.047,1.047,0,0,0-.349.164.912.912,0,0,0-.255.282.792.792,0,0,0-.1.4.742.742,0,0,0,.09.38.822.822,0,0,0,.243.259,1.553,1.553,0,0,0,.361.18q.208.075.443.153.282.086.572.2a2.057,2.057,0,0,1,.525.29,1.431,1.431,0,0,1,.385.451,1.413,1.413,0,0,1,.149.686,1.639,1.639,0,0,1-.161.749,1.53,1.53,0,0,1-.427.525,1.819,1.819,0,0,1-.616.31,2.538,2.538,0,0,1-.718.1,2.621,2.621,0,0,1-1.016-.2,2.012,2.012,0,0,1-.811-.6l.6-.51a1.482,1.482,0,0,0,.526.47,1.475,1.475,0,0,0,1.106.126,1.1,1.1,0,0,0,.357-.173.949.949,0,0,0,.263-.294.842.842,0,0,0,.1-.427.778.778,0,0,0-.106-.42.942.942,0,0,0-.286-.287,1.915,1.915,0,0,0-.419-.2q-.239-.082-.506-.168a4.381,4.381,0,0,1-.526-.192,1.832,1.832,0,0,1-.462-.29,1.342,1.342,0,0,1-.33-.435,1.473,1.473,0,0,1-.126-.643,1.426,1.426,0,0,1,.169-.714,1.534,1.534,0,0,1,.439-.494,1.835,1.835,0,0,1,.612-.286,2.688,2.688,0,0,1,.686-.09,2.393,2.393,0,0,1,.91.172,1.817,1.817,0,0,1,.682.463Z" transform="translate(-419.617 -418.031)" fill="#d18919"/>
      <path id="Trazado_40" data-name="Trazado 40" d="M484.45,419.2a1.239,1.239,0,0,0-.447-.373,1.37,1.37,0,0,0-.635-.145,1.475,1.475,0,0,0-.38.051,1.042,1.042,0,0,0-.349.164.91.91,0,0,0-.255.282.791.791,0,0,0-.1.4.739.739,0,0,0,.09.38.82.82,0,0,0,.243.259,1.555,1.555,0,0,0,.361.18q.208.075.443.153.282.086.573.2a2.057,2.057,0,0,1,.525.29,1.43,1.43,0,0,1,.384.451,1.413,1.413,0,0,1,.149.686,1.638,1.638,0,0,1-.161.749,1.525,1.525,0,0,1-.427.525,1.814,1.814,0,0,1-.616.31,2.538,2.538,0,0,1-.718.1,2.62,2.62,0,0,1-1.016-.2,2.012,2.012,0,0,1-.812-.6l.6-.51a1.478,1.478,0,0,0,.525.47,1.475,1.475,0,0,0,1.106.126,1.1,1.1,0,0,0,.357-.173.947.947,0,0,0,.263-.294.842.842,0,0,0,.1-.427.775.775,0,0,0-.106-.42.941.941,0,0,0-.286-.287,1.933,1.933,0,0,0-.42-.2q-.239-.082-.506-.168a4.335,4.335,0,0,1-.525-.192,1.827,1.827,0,0,1-.463-.29,1.336,1.336,0,0,1-.329-.435,1.468,1.468,0,0,1-.125-.643,1.425,1.425,0,0,1,.169-.714,1.538,1.538,0,0,1,.439-.494,1.833,1.833,0,0,1,.612-.286,2.683,2.683,0,0,1,.686-.09,2.393,2.393,0,0,1,.91.172,1.813,1.813,0,0,1,.682.463Z" transform="translate(-431.666 -418.031)" fill="#d18919"/>
      <path id="Trazado_41" data-name="Trazado 41" d="M512.161,418.437h1.913a2.859,2.859,0,0,1,.628.071,1.66,1.66,0,0,1,.561.235,1.271,1.271,0,0,1,.4.431,1.324,1.324,0,0,1,.153.667,1.157,1.157,0,0,1-.266.776,1.36,1.36,0,0,1-.706.431v.016a1.616,1.616,0,0,1,.494.137,1.3,1.3,0,0,1,.392.279,1.222,1.222,0,0,1,.255.408,1.465,1.465,0,0,1,.09.525,1.376,1.376,0,0,1-.612,1.188,2.1,2.1,0,0,1-.663.29,3.241,3.241,0,0,1-.812.1h-1.827Zm.776,2.345h1.011a1.7,1.7,0,0,0,.42-.051,1.04,1.04,0,0,0,.349-.157.771.771,0,0,0,.235-.267.811.811,0,0,0,.086-.388.68.68,0,0,0-.33-.639,1.753,1.753,0,0,0-.886-.192h-.886Zm0,2.549h.972a2.829,2.829,0,0,0,.49-.043,1.43,1.43,0,0,0,.447-.153.89.89,0,0,0,.322-.294.832.832,0,0,0,.121-.467.788.788,0,0,0-.337-.714,1.789,1.789,0,0,0-.972-.219h-1.043Z" transform="translate(-451.793 -418.296)" fill="#d18919"/>
      <path id="Trazado_42" data-name="Trazado 42" d="M533.056,423.3h2.9v.69H532.28v-5.552h3.56v.682h-2.784v1.663h2.619v.667h-2.619Z" transform="translate(-464.917 -418.296)" fill="#d18919"/>
      <path id="Trazado_43" data-name="Trazado 43" d="M550.51,423.989h-.863l2.407-5.552h.706l2.384,5.552h-.879l-.564-1.365h-2.635Zm.831-2.047h2.078l-1.035-2.6Z" transform="translate(-476.246 -418.296)" fill="#d18919"/>
      <path id="Trazado_44" data-name="Trazado 44" d="M574.9,424.13a2.305,2.305,0,0,1-.956-.184,1.938,1.938,0,0,1-.674-.49,2,2,0,0,1-.4-.7,2.623,2.623,0,0,1-.129-.819v-3.5h.776v3.45a2.283,2.283,0,0,0,.07.561,1.428,1.428,0,0,0,.232.5,1.171,1.171,0,0,0,.423.353,1.662,1.662,0,0,0,1.306,0,1.165,1.165,0,0,0,.428-.353,1.428,1.428,0,0,0,.231-.5,2.281,2.281,0,0,0,.071-.561v-3.45h.776v3.5a2.622,2.622,0,0,1-.129.819,2.009,2.009,0,0,1-.4.7,1.938,1.938,0,0,1-.674.49A2.309,2.309,0,0,1,574.9,424.13Z" transform="translate(-491.312 -418.296)" fill="#d18919"/>
      <path id="Trazado_45" data-name="Trazado 45" d="M595.352,423.989h-.776v-4.87h-1.78v-.682h4.337v.682h-1.78Z" transform="translate(-504.392 -418.296)" fill="#d18919"/>
      <path id="Trazado_46" data-name="Trazado 46" d="M613.611,423.989h-.784v-2.4l-2.078-3.152h.956l1.537,2.51,1.545-2.51h.9l-2.078,3.152Z" transform="translate(-516.104 -418.296)" fill="#d18919"/>
      <path id="Trazado_47" data-name="Trazado 47" d="M647.436,422.862a2.5,2.5,0,0,1-.855.725,2.665,2.665,0,0,1-1.263.279,3.123,3.123,0,0,1-1.172-.216,2.732,2.732,0,0,1-.925-.6,2.782,2.782,0,0,1-.608-.926,3.279,3.279,0,0,1,0-2.368,2.684,2.684,0,0,1,.62-.917,2.821,2.821,0,0,1,.937-.592,3.2,3.2,0,0,1,1.176-.212,3.083,3.083,0,0,1,.573.055,2.865,2.865,0,0,1,.557.164,2.328,2.328,0,0,1,.486.271,1.745,1.745,0,0,1,.376.372l-.612.47a1.533,1.533,0,0,0-.576-.467,1.791,1.791,0,0,0-.8-.184,2.085,2.085,0,0,0-.874.177,1.972,1.972,0,0,0-.663.482,2.18,2.18,0,0,0-.424.71,2.467,2.467,0,0,0-.149.859,2.594,2.594,0,0,0,.145.878,2.1,2.1,0,0,0,.415.71,1.914,1.914,0,0,0,.659.475,2.109,2.109,0,0,0,.866.172,1.916,1.916,0,0,0,.855-.188,1.644,1.644,0,0,0,.635-.549Z" transform="translate(-536.746 -418.031)" fill="#d18919"/>
      <path id="Trazado_48" data-name="Trazado 48" d="M665.589,423.3h2.478v.69h-3.254v-5.552h.776Z" transform="translate(-551.37 -418.296)" fill="#d18919"/>
      <path id="Trazado_49" data-name="Trazado 49" d="M682.753,423.989h-.776v-5.552h.776Z" transform="translate(-562.567 -418.296)" fill="#d18919"/>
      <path id="Trazado_50" data-name="Trazado 50" d="M697.641,422.876h.016v-4.439h.776v5.552h-.98l-2.933-4.533H694.5v4.533h-.776v-5.552h1.012Z" transform="translate(-570.232 -418.296)" fill="#d18919"/>
      <path id="Trazado_51" data-name="Trazado 51" d="M717.555,423.989h-.776v-5.552h.776Z" transform="translate(-585.268 -418.296)" fill="#d18919"/>
      <path id="Trazado_52" data-name="Trazado 52" d="M732.76,422.862a2.5,2.5,0,0,1-.855.725,2.664,2.664,0,0,1-1.263.279,3.123,3.123,0,0,1-1.173-.216,2.732,2.732,0,0,1-.925-.6,2.783,2.783,0,0,1-.608-.926,3.277,3.277,0,0,1,0-2.368,2.683,2.683,0,0,1,.619-.917,2.819,2.819,0,0,1,.937-.592,3.2,3.2,0,0,1,1.176-.212,3.081,3.081,0,0,1,.572.055,2.857,2.857,0,0,1,.557.164,2.318,2.318,0,0,1,.486.271,1.753,1.753,0,0,1,.377.372l-.612.47a1.528,1.528,0,0,0-.576-.467,1.79,1.79,0,0,0-.8-.184,2.087,2.087,0,0,0-.874.177,1.976,1.976,0,0,0-.663.482,2.173,2.173,0,0,0-.423.71,2.462,2.462,0,0,0-.149.859,2.594,2.594,0,0,0,.145.878,2.109,2.109,0,0,0,.415.71,1.921,1.921,0,0,0,.659.475,2.11,2.11,0,0,0,.866.172,1.916,1.916,0,0,0,.855-.188,1.648,1.648,0,0,0,.636-.549Z" transform="translate(-592.404 -418.031)" fill="#d18919"/>
    </g>
  </g>
</svg>
